<svg width="14" height="14" viewBox="0 0 14 14" fill="none" xmlns="http://www.w3.org/2000/svg">
<path fill-rule="evenodd" clip-rule="evenodd" d="M7 14C10.866 14 14 10.866 14 7C14 3.13401 10.866 0 7 0C3.13401 0 0 3.13401 0 7C0 10.866 3.13401 14 7 14ZM6.68896 9.9003L6.68896 3.43518C6.68896 3.25629 6.82833 3.11111 7.00006 3.11111C7.1718 3.11111 7.31117 3.25629 7.31117 3.43518V9.91051L9.57479 7.42453C9.69332 7.2949 9.8901 7.28988 10.0145 7.41335C10.0788 7.47703 10.1111 7.56259 10.1111 7.64814C10.1111 7.72851 10.0827 7.80889 10.0253 7.87159L7.44526 10.6933C7.32253 10.8213 7.1662 10.8889 7.00006 10.8889C6.83378 10.8889 6.6776 10.8213 6.56 10.699L3.9747 7.87176C3.85617 7.74196 3.86115 7.53683 3.98544 7.41352C4.10988 7.29004 4.30681 7.29507 4.42534 7.4247L6.68896 9.9003Z" fill="#EEA46B"/>
</svg>
